<svg width="24" height="24" viewBox="0 0 24 24" xmlns="http://www.w3.org/2000/svg">
<path fill="white" fill-rule="evenodd" clip-rule="evenodd" d="M15.0001 5C15.0001 6.65685 13.6569 8 12.0001 8C10.3432 8 9.00006 6.65685 9.00006 5C9.00006 3.34315 10.3432 2 12.0001 2C13.6569 2 15.0001 3.34315 15.0001 5ZM17.0001 5C17.0001 7.76142 14.7615 10 12.0001 10C9.23864 10 7.00006 7.76142 7.00006 5C7.00006 2.23858 9.23864 0 12.0001 0C14.7615 0 17.0001 2.23858 17.0001 5ZM17.0998 13.9384C15.7521 12.5057 13.8389 11.6111 11.7168 11.6111C7.636 11.6111 4.32788 14.9192 4.32788 19H6.43899C6.43899 16.0852 8.80193 13.7222 11.7168 13.7222C13.256 13.7222 14.6413 14.3811 15.606 15.4322L17.0998 13.9384ZM16.8885 21.4766L20.8992 17.4659C21.2761 17.089 21.2761 16.4778 20.8992 16.1009C20.5223 15.7239 19.9111 15.7239 19.5342 16.1009L15.5235 20.1116L15.2353 21.7648L16.8885 21.4766ZM17.7674 23.169L22.1848 18.7516C23.2718 17.6646 23.2718 15.9022 22.1848 14.8152C21.0979 13.7283 19.3355 13.7283 18.2485 14.8152L13.8311 19.2327L13.0001 24L17.7674 23.169Z"/>
</svg>